# xmcd
#
# Track frame offsets:
#	150
#	17860
#	52320
#	70807
#	102245
#	118677
#
# Disc length: 2061 seconds
# Revision: 0
# Processed by: cddbd v1.5.2PL0 Copyright (c) Steve Scherf et al.
# Submitted via: dBpowerAMP V12.0
#
DISCID=53080b06
DTITLE=Duke - So In Love With You
DYEAR=1997
DGENRE=House
TTITLE0=So In Love With You [Pizzaman Radio Friendly Mix]
TTITLE1=So In Love With You [Pizzaman House Mix]
TTITLE2=So In Love With You [Sweet Mix]
TTITLE3=So In Love With You [5am Dub]
TTITLE4=So In Love With You [Full Intention 7” Mix]
TTITLE5=So In Love With You [Full Intention 12” Mix]
EXTD=
EXTT0=
EXTT1=
EXTT2=
EXTT3=
EXTT4=
EXTT5=
PLAYORDER=
